<?xml version="1.0" standalone="no"?>
<!DOCTYPE svg PUBLIC "-//W3C//DTD SVG 20010904//EN"
 "http://www.w3.org/TR/2001/REC-SVG-20010904/DTD/svg10.dtd">
<svg version="1.0" xmlns="http://www.w3.org/2000/svg"
 width="229.000000pt" height="229.000000pt" viewBox="0 0 229.000000 229.000000"
 preserveAspectRatio="xMidYMid meet">
<metadata>
Created by potrace 1.11, written by Peter Selinger 2001-2013
</metadata>
<g transform="translate(0.000000,229.000000) scale(0.100000,-0.100000)"
fill="#000000" stroke="none">
<path d="M300 1750 l0 -190 50 0 50 0 0 -410 0 -410 -50 0 -50 0 0 -195 0
-195 330 0 330 0 0 195 0 195 -50 0 -50 0 0 151 c0 82 4 148 8 145 5 -3 80
-122 167 -265 87 -144 159 -260 161 -258 1 1 73 119 159 262 87 143 159 262
161 264 2 2 4 -64 4 -147 l0 -152 -45 0 -45 0 0 -195 0 -195 330 0 330 0 0
195 0 195 -50 0 -50 0 0 410 0 410 50 0 50 0 0 190 0 190 -262 0 -263 -1 -184
-304 c-102 -167 -187 -302 -190 -300 -2 3 -86 139 -187 303 l-182 297 -261 3
-261 2 0 -190z m687 -170 c106 -173 197 -320 201 -327 4 -6 92 129 207 318
l200 329 223 0 223 0 -3 -147 -3 -148 -45 -1 -45 -1 0 -454 0 -454 48 -3 47
-3 0 -145 0 -144 -285 0 -285 0 0 145 0 145 50 0 50 0 0 255 c0 140 -2 255 -4
255 -3 0 -82 -127 -177 -282 -94 -156 -177 -291 -184 -301 -10 -15 -33 18
-175 250 -90 148 -174 284 -187 303 l-23 35 0 -258 0 -257 45 0 45 0 0 -145 0
-145 -280 0 -280 0 0 145 0 145 45 0 45 0 0 458 0 457 -45 -3 -45 -4 0 151 0
151 221 -2 221 -3 195 -315z"/>
<path d="M405 1755 l0 -85 48 0 47 0 -2 -517 -3 -518 -42 0 -42 0 -3 -88 -3
-87 223 0 222 0 0 88 0 87 -45 -3 -45 -4 0 393 0 394 38 -60 c21 -33 119 -191
217 -352 99 -161 180 -291 181 -290 0 1 92 153 204 337 112 184 209 342 217
350 11 12 13 -45 11 -375 l-3 -390 -48 0 -47 0 0 -87 0 -88 225 0 225 0 0 88
0 87 -45 -3 -45 -4 0 521 0 521 45 0 45 0 0 85 0 85 -177 -2 -177 -3 -212
-348 c-117 -192 -214 -351 -217 -353 -3 -3 -103 155 -222 350 l-218 356 -176
0 -176 0 0 -85z"/>
</g>
</svg>
