<?xml version="1.0" standalone="no"?>
<!DOCTYPE svg PUBLIC "-//W3C//DTD SVG 20010904//EN"
 "http://www.w3.org/TR/2001/REC-SVG-20010904/DTD/svg10.dtd">
<svg version="1.0" xmlns="http://www.w3.org/2000/svg"
 width="445.000000pt" height="445.000000pt" viewBox="0 0 445.000000 445.000000"
 preserveAspectRatio="xMidYMid meet">
<metadata>
Created by potrace 1.11, written by Peter Selinger 2001-2013
</metadata>
<g transform="translate(0.000000,445.000000) scale(0.100000,-0.100000)"
fill="#000000" stroke="none">
<path d="M2160 3358 c-19 -5 -48 -22 -64 -36 -20 -19 -27 -22 -23 -10 5 14 2
17 -13 15 -11 -2 -26 -9 -32 -15 -7 -7 -17 -12 -24 -12 -6 0 -17 -7 -24 -15
-7 -8 -16 -13 -20 -10 -4 3 -13 -2 -20 -10 -7 -8 -16 -12 -21 -9 -5 3 -9 -1
-9 -10 0 -23 11 -46 22 -46 6 0 5 6 -2 15 -7 9 -8 15 -2 15 24 0 39 -46 37
-115 -1 -50 3 -75 14 -88 12 -15 25 -117 14 -117 -1 0 -7 15 -12 33 l-9 32 -1
-37 c-1 -30 3 -38 17 -38 18 0 52 -74 52 -113 0 -18 8 -18 58 0 6 3 12 1 12
-5 0 -6 -15 -13 -32 -17 -47 -10 -101 -28 -116 -39 -11 -8 -10 -11 5 -17 22
-8 10 -14 -50 -24 -21 -3 -35 -10 -32 -15 3 -5 -5 -20 -19 -34 -15 -17 -26
-46 -32 -79 -6 -42 -8 -46 -12 -23 -3 27 -8 22 -53 -58 -27 -49 -49 -90 -49
-92 0 -3 30 -19 68 -37 l67 -33 -4 -119 c-3 -118 -4 -122 -46 -205 -56 -113
-68 -154 -110 -363 -19 -98 -40 -186 -45 -195 -10 -14 -10 -13 -5 8 3 14 21
106 39 205 19 99 41 200 50 224 9 24 16 45 16 48 0 10 -54 -5 -64 -19 -18 -24
-50 -38 -67 -27 -20 13 -27 11 -48 -10 -20 -20 -21 -19 -102 14 -45 19 -89 40
-98 48 -37 30 -79 40 -186 42 -60 1 -130 7 -154 14 -23 7 -45 10 -47 8 -3 -2
4 -45 15 -95 115 -527 471 -925 943 -1054 74 -20 105 -23 288 -23 183 0 214 3
288 23 437 120 779 472 916 945 78 267 81 582 9 840 -8 31 -18 57 -21 57 -2 0
-17 -15 -33 -32 -19 -23 -37 -33 -60 -34 -17 -1 -34 -6 -38 -10 -8 -11 -39
-31 -68 -44 -13 -5 -23 -16 -23 -24 0 -8 -6 -19 -13 -23 -8 -4 -16 -16 -20
-25 -4 -12 -17 -18 -38 -18 -32 0 -97 -33 -112 -57 -4 -7 -14 -13 -21 -13 -8
0 -19 -6 -25 -14 -9 -11 -3 -19 33 -40 25 -14 48 -31 52 -37 4 -6 -20 6 -52
26 -33 21 -67 43 -77 49 -21 13 -47 68 -47 100 0 37 -36 81 -99 122 -39 25
-59 44 -56 53 8 20 -102 91 -140 91 -10 0 -31 10 -47 22 -17 11 -44 22 -61 24
-40 3 -84 50 -93 100 -5 27 0 58 20 119 36 111 36 164 0 241 -48 102 -128 135
-244 102z m872 -1110 c-17 -17 -15 -28 5 -28 13 0 14 -3 5 -12 -19 -19 -14
-34 13 -46 14 -6 25 -17 25 -24 0 -10 -2 -10 -9 0 -7 11 -9 11 -14 -1 -3 -9 1
-18 9 -21 9 -3 13 -10 9 -16 -3 -5 -1 -19 5 -31 7 -11 10 -23 7 -25 -2 -3 -27
34 -55 81 l-52 86 28 24 c28 25 45 34 24 13z m-186 -385 c-2 -2 -8 10 -14 26
-6 17 -15 31 -20 31 -12 0 -35 88 -26 102 4 6 20 -27 35 -72 16 -46 27 -85 25
-87z m262 142 c-3 -3 -9 2 -12 12 -6 14 -5 15 5 6 7 -7 10 -15 7 -18z m31 -70
c0 -5 -6 1 -14 15 -8 14 -14 30 -14 35 0 6 6 -1 14 -15 8 -14 14 -29 14 -35z
m-205 -36 c12 -38 12 -49 0 -74 l-14 -30 5 40 c5 47 -3 87 -17 79 -5 -3 -8 0
-7 7 2 8 -3 25 -10 39 l-13 25 21 -21 c12 -11 28 -41 35 -65z m-1439 -69 c3
-5 1 -10 -4 -10 -6 0 -11 5 -11 10 0 6 2 10 4 10 3 0 8 -4 11 -10z m1365 -6
c0 -8 -4 -12 -10 -9 -5 3 -10 10 -10 16 0 5 5 9 10 9 6 0 10 -7 10 -16z m44
-168 c-16 -96 -60 -220 -87 -251 -12 -13 -35 -40 -51 -60 -16 -20 -31 -33 -34
-30 -3 3 8 20 25 38 63 66 121 203 138 325 4 28 10 52 14 52 5 0 2 -33 -5 -74z
m-1114 -220 c-6 -20 -15 -36 -20 -36 -5 0 -1 18 7 40 20 49 30 45 13 -4z
m1000 -400 c0 -3 -4 -8 -10 -11 -5 -3 -10 -1 -10 4 0 6 5 11 10 11 6 0 10 -2
10 -4z"/>
<path d="M3255 2914 l-30 -25 32 15 c24 12 33 13 36 3 4 -9 8 -8 16 3 9 12 11
13 11 1 0 -8 3 -11 6 -8 9 8 -15 37 -30 37 -6 0 -24 -12 -41 -26z"/>
</g>
</svg>
